<mxfile host="app.diagrams.net" agent="Mozilla/5.0 (Windows NT 10.0; Win64; x64) AppleWebKit/537.36 (KHTML, like Gecko) Chrome/131.0.0.0 Safari/537.36 Edg/131.0.0.0" version="24.8.6">
  <diagram name="Page-1" id="V8CQ23fq76_Rz2cbGqyL">
    <mxGraphModel dx="1042" dy="531" grid="1" gridSize="10" guides="1" tooltips="1" connect="1" arrows="1" fold="1" page="1" pageScale="1" pageWidth="850" pageHeight="1100" math="0" shadow="0">
      <root>
        <mxCell id="0" />
        <mxCell id="1" parent="0" />
        <mxCell id="OW75wmjr70zywbJ3eJ3U-1" value="Windows 10&lt;div&gt;(Wazuh Agent)&lt;/div&gt;" style="shape=mxgraph.cisco.computers_and_peripherals.pc;html=1;pointerEvents=1;dashed=0;fillColor=#036897;strokeColor=#ffffff;strokeWidth=2;verticalLabelPosition=bottom;verticalAlign=top;align=center;outlineConnect=0;" vertex="1" parent="1">
          <mxGeometry x="30" y="10" width="78" height="70" as="geometry" />
        </mxCell>
        <mxCell id="OW75wmjr70zywbJ3eJ3U-10" value="For Alert Management" style="edgeStyle=orthogonalEdgeStyle;rounded=0;orthogonalLoop=1;jettySize=auto;html=1;fillColor=#1ba1e2;strokeColor=#006EAF;" edge="1" parent="1" source="OW75wmjr70zywbJ3eJ3U-3" target="OW75wmjr70zywbJ3eJ3U-5">
          <mxGeometry relative="1" as="geometry" />
        </mxCell>
        <mxCell id="OW75wmjr70zywbJ3eJ3U-3" value="Wazuh Manager&lt;div&gt;&lt;br&gt;&lt;/div&gt;" style="image;aspect=fixed;perimeter=ellipsePerimeter;html=1;align=center;shadow=0;dashed=0;spacingTop=3;image=img/lib/active_directory/internet_cloud.svg;" vertex="1" parent="1">
          <mxGeometry x="510" y="20" width="50" height="31.5" as="geometry" />
        </mxCell>
        <mxCell id="OW75wmjr70zywbJ3eJ3U-4" value="The Hive&lt;div&gt;&lt;br&gt;&lt;/div&gt;" style="image;aspect=fixed;perimeter=ellipsePerimeter;html=1;align=center;shadow=0;dashed=0;spacingTop=3;image=img/lib/active_directory/internet_cloud.svg;" vertex="1" parent="1">
          <mxGeometry x="760" y="180" width="50" height="31.5" as="geometry" />
        </mxCell>
        <mxCell id="OW75wmjr70zywbJ3eJ3U-11" value="For Case Management&lt;div&gt;&lt;div&gt;(Enriching IoCs)&lt;div&gt;&lt;br&gt;&lt;/div&gt;&lt;/div&gt;&lt;/div&gt;" style="edgeStyle=orthogonalEdgeStyle;rounded=0;orthogonalLoop=1;jettySize=auto;html=1;exitX=1;exitY=0.5;exitDx=0;exitDy=0;fillColor=#008a00;strokeColor=#005700;" edge="1" parent="1" source="OW75wmjr70zywbJ3eJ3U-5" target="OW75wmjr70zywbJ3eJ3U-4">
          <mxGeometry x="-0.1998" y="-34" relative="1" as="geometry">
            <mxPoint as="offset" />
          </mxGeometry>
        </mxCell>
        <mxCell id="OW75wmjr70zywbJ3eJ3U-5" value="Shuffle&lt;div&gt;&lt;br&gt;&lt;/div&gt;" style="image;aspect=fixed;perimeter=ellipsePerimeter;html=1;align=center;shadow=0;dashed=0;spacingTop=3;image=img/lib/active_directory/internet_cloud.svg;" vertex="1" parent="1">
          <mxGeometry x="510" y="180" width="50" height="31.5" as="geometry" />
        </mxCell>
        <mxCell id="OW75wmjr70zywbJ3eJ3U-9" style="edgeStyle=orthogonalEdgeStyle;rounded=0;orthogonalLoop=1;jettySize=auto;html=1;" edge="1" parent="1" source="OW75wmjr70zywbJ3eJ3U-2">
          <mxGeometry relative="1" as="geometry">
            <mxPoint x="500" y="50" as="targetPoint" />
          </mxGeometry>
        </mxCell>
        <mxCell id="OW75wmjr70zywbJ3eJ3U-2" value="Router" style="image;html=1;image=img/lib/clip_art/networking/Router_128x128.png" vertex="1" parent="1">
          <mxGeometry x="310" y="10" width="80" height="80" as="geometry" />
        </mxCell>
        <mxCell id="OW75wmjr70zywbJ3eJ3U-8" value="Send Events&lt;div&gt;&lt;br&gt;&lt;/div&gt;" style="edgeStyle=orthogonalEdgeStyle;rounded=0;orthogonalLoop=1;jettySize=auto;html=1;entryX=0.375;entryY=0.438;entryDx=0;entryDy=0;entryPerimeter=0;fillColor=#f5f5f5;gradientColor=#b3b3b3;strokeColor=#666666;" edge="1" parent="1">
          <mxGeometry x="-0.1393" y="17" relative="1" as="geometry">
            <mxPoint x="108" y="47.480000000000004" as="sourcePoint" />
            <mxPoint x="340" y="52.51999999999997" as="targetPoint" />
            <Array as="points">
              <mxPoint x="340" y="47.480000000000004" />
            </Array>
            <mxPoint as="offset" />
          </mxGeometry>
        </mxCell>
        <mxCell id="OW75wmjr70zywbJ3eJ3U-13" value="Send Email Alerts" style="edgeStyle=orthogonalEdgeStyle;shape=connector;rounded=0;orthogonalLoop=1;jettySize=auto;html=1;strokeColor=#666666;align=center;verticalAlign=middle;fontFamily=Helvetica;fontSize=11;fontColor=default;labelBackgroundColor=default;endArrow=classic;fillColor=#f5f5f5;gradientColor=#b3b3b3;" edge="1" parent="1" source="OW75wmjr70zywbJ3eJ3U-12" target="OW75wmjr70zywbJ3eJ3U-5">
          <mxGeometry relative="1" as="geometry" />
        </mxCell>
        <mxCell id="OW75wmjr70zywbJ3eJ3U-12" value="SOC Analyst" style="shape=mxgraph.cisco.people.androgenous_person;html=1;pointerEvents=1;dashed=0;fillColor=#036897;strokeColor=#ffffff;strokeWidth=2;verticalLabelPosition=bottom;verticalAlign=top;align=center;outlineConnect=0;fontFamily=Helvetica;fontSize=11;fontColor=default;labelBackgroundColor=default;" vertex="1" parent="1">
          <mxGeometry x="515" y="350" width="40" height="52" as="geometry" />
        </mxCell>
      </root>
    </mxGraphModel>
  </diagram>
</mxfile>
